<svg width="40" height="40" viewBox="0 0 40 40" fill="none" xmlns="http://www.w3.org/2000/svg">
<circle cx="20" cy="20" r="19" fill="white" stroke="#BE95C4" stroke-width="2"/>
<path d="M20.4755 8.08156L22.6677 14.8283C22.8685 15.4463 23.4444 15.8647 24.0943 15.8647H31.1882C31.6725 15.8647 31.8739 16.4846 31.4821 16.7693L25.743 20.9389C25.2172 21.3209 24.9972 21.998 25.1981 22.616L27.3902 29.3627C27.5399 29.8234 27.0126 30.2064 26.6208 29.9217L20.8817 25.752C20.3559 25.3701 19.6441 25.3701 19.1183 25.752L13.3792 29.9217C12.9874 30.2064 12.4601 29.8234 12.6098 29.3627L14.8019 22.616C15.0028 21.998 14.7828 21.3209 14.257 20.939L8.51794 16.7693C8.12609 16.4846 8.32747 15.8647 8.81184 15.8647H15.9057C16.5556 15.8647 17.1315 15.4463 17.3323 14.8283L19.5245 8.08156C19.6741 7.6209 20.3259 7.62091 20.4755 8.08156Z" fill="#9F86C0" stroke="#BE95C4"/>
</svg>
