<svg width="50" height="50" viewBox="0 0 50 50" fill="none" xmlns="http://www.w3.org/2000/svg">
<path d="M40.625 25C40.625 24.5856 40.7896 24.1882 41.0826 23.8951C41.3757 23.6021 41.7731 23.4375 42.1875 23.4375C42.6019 23.4375 42.9993 23.6021 43.2924 23.8951C43.5854 24.1882 43.75 24.5856 43.75 25V42.1875C43.75 42.6019 43.5854 42.9993 43.2924 43.2924C42.9993 43.5854 42.6019 43.75 42.1875 43.75H7.8125C7.3981 43.75 7.00067 43.5854 6.70765 43.2924C6.41462 42.9993 6.25 42.6019 6.25 42.1875V7.8125C6.25 7.3981 6.41462 7.00067 6.70765 6.70765C7.00067 6.41462 7.3981 6.25 7.8125 6.25H25C25.4144 6.25 25.8118 6.41462 26.1049 6.70765C26.3979 7.00067 26.5625 7.3981 26.5625 7.8125C26.5625 8.2269 26.3979 8.62433 26.1049 8.91735C25.8118 9.21038 25.4144 9.375 25 9.375H9.375V40.625H40.625V25Z" fill="#BE95C4"/>
<path d="M22.9468 27.0625L25.525 26.6937L41.3625 10.8594C41.5117 10.7152 41.6307 10.5428 41.7126 10.3522C41.7945 10.1616 41.8376 9.95653 41.8394 9.74906C41.8412 9.5416 41.8017 9.33585 41.7231 9.14382C41.6445 8.9518 41.5285 8.77734 41.3818 8.63063C41.2351 8.48392 41.0607 8.3679 40.8686 8.28934C40.6766 8.21078 40.4709 8.17124 40.2634 8.17305C40.0559 8.17485 39.8509 8.21795 39.6603 8.29984C39.4696 8.38173 39.2972 8.50076 39.1531 8.65L23.3125 24.4844L22.9437 27.0625H22.9468ZM43.5718 6.4375C44.0074 6.87281 44.353 7.38969 44.5887 7.9586C44.8245 8.52751 44.9458 9.1373 44.9458 9.75312C44.9458 10.3689 44.8245 10.9787 44.5887 11.5476C44.353 12.1166 44.0074 12.6334 43.5718 13.0687L27.3687 29.2719C27.1298 29.5117 26.8194 29.6674 26.4843 29.7156L21.3281 30.4531C21.0878 30.4876 20.8427 30.4657 20.6124 30.389C20.3821 30.3123 20.1728 30.183 20.0011 30.0113C19.8294 29.8397 19.7001 29.6304 19.6235 29.4C19.5468 29.1697 19.5248 28.9247 19.5593 28.6844L20.2968 23.5281C20.3442 23.1934 20.4988 22.8831 20.7375 22.6437L36.9437 6.44062C37.8227 5.56185 39.0148 5.06819 40.2578 5.06819C41.5007 5.06819 42.6928 5.56185 43.5718 6.44062V6.4375Z" fill="#BE95C4"/>
</svg>
