<svg width="100" height="100" viewBox="0 0 100 100" fill="none" xmlns="http://www.w3.org/2000/svg">
<g clip-path="url(#clip0_98_17)">
<path fill-rule="evenodd" clip-rule="evenodd" d="M49.9999 8.33334C26.9874 8.33334 8.33325 26.9875 8.33325 50C8.33325 73.0125 26.9874 91.6667 49.9999 91.6667C73.0124 91.6667 91.6666 73.0125 91.6666 50C91.6666 26.9875 73.0124 8.33334 49.9999 8.33334ZM35.4166 39.5833C35.4166 37.6682 35.7938 35.7719 36.5267 34.0025C37.2596 32.2332 38.3338 30.6256 39.6879 29.2714C41.0421 27.9172 42.6498 26.843 44.4191 26.1101C46.1885 25.3772 48.0848 25 49.9999 25C51.915 25 53.8114 25.3772 55.5807 26.1101C57.3501 26.843 58.9577 27.9172 60.3119 29.2714C61.6661 30.6256 62.7403 32.2332 63.4732 34.0025C64.206 35.7719 64.5833 37.6682 64.5833 39.5833C64.5833 43.4511 63.0468 47.1604 60.3119 49.8953C57.577 52.6302 53.8677 54.1667 49.9999 54.1667C46.1322 54.1667 42.4229 52.6302 39.6879 49.8953C36.953 47.1604 35.4166 43.4511 35.4166 39.5833ZM76.0749 70.7667C72.9559 74.6901 68.9908 77.8582 64.4756 80.0342C59.9605 82.2102 55.0121 83.338 49.9999 83.3333C44.9878 83.338 40.0393 82.2102 35.5242 80.0342C31.0091 77.8582 27.0439 74.6901 23.9249 70.7667C30.6791 65.9208 39.8958 62.5 49.9999 62.5C60.1041 62.5 69.3208 65.9208 76.0749 70.7667Z" fill="#231942"/>
</g>
<defs>
<clipPath id="clip0_98_17">
<rect width="100" height="100" fill="white"/>
</clipPath>
</defs>
</svg>
